<svg width="48" height="48" viewBox="0 0 48 48" fill="none" xmlns="http://www.w3.org/2000/svg">
<g id="Frame 74">
<path id="Rectangle 100" d="M0 10.784L48 4.92798V34.944L0 40.768V10.784Z" fill="#42B883"/>
<g id="_&#229;&#155;&#190;&#229;&#177;&#130;_1" clip-path="url(#clip0_316_46)">
<path id="Vector" d="M19.5844 22.9307C19.5844 23.5283 19.6159 24.1275 19.5781 24.7219C19.4995 25.9391 18.6834 26.9069 17.5025 27.2268C15.4394 27.7852 13.315 27.6786 11.2111 27.7664C9.82886 27.8244 8.45138 27.9091 7.08963 28.1491C6.44178 28.2636 6.05495 28.6542 6.09741 29.3365C6.13986 30.0015 6.60689 30.2651 7.20599 30.3294C7.56766 30.3686 7.93719 30.3858 8.30043 30.3623C10.6921 30.2086 13.0917 30.1192 15.4724 29.8525C17.4239 29.6345 19.1897 28.9287 20.1002 26.9806C20.6301 25.8465 21.0358 24.6717 21.0578 23.3934C21.0971 21.0296 21.1978 18.6722 21.5689 16.3304C21.7513 15.1791 21.7135 15.1665 22.9275 15.3061C23.7294 15.3987 24.5361 15.5069 25.3145 15.1477C25.7626 14.9391 26.1337 14.6662 26.1825 14.136C26.2296 13.6278 25.8978 13.3298 25.522 13.0663C24.86 12.6051 24.1131 12.3918 23.3206 12.3479C21.8079 12.2663 20.2967 12.2836 18.7856 12.4138C17.1455 12.5549 15.5007 12.4969 13.8591 12.4451C13.293 12.4279 12.7694 12.0985 12.1734 12.1816C11.2991 12.304 10.7849 12.7934 10.7016 13.6325C10.6292 14.3493 11.1057 15.005 11.8683 15.2748C12.4407 15.4771 13.0225 15.5853 13.6311 15.5571C15.0369 15.4912 16.4426 15.4285 17.8484 15.3767C19.4901 15.3171 19.4995 15.3249 19.4382 16.9374C19.3596 18.9404 19.5357 20.934 19.5876 22.9307H19.5844Z" fill="white"/>
<path id="Vector_2" d="M28.2204 31.5187C27.2816 31.3917 26.2548 31.6772 25.2107 31.6834C24.3537 31.6881 23.8725 32.3281 23.9795 33.1406C24.0707 33.8433 24.75 34.295 25.5629 34.1366C26.6165 33.9311 27.6858 33.906 28.7472 33.7868C30.8087 33.5547 32.9692 32.4881 33.2208 29.6993C33.3293 28.5056 33.3183 27.3135 33.3278 26.1199C33.3325 25.6603 33.4017 25.3294 33.9048 25.16C34.2759 25.0345 34.5574 24.7522 34.7052 24.3553C34.9867 23.5962 34.787 22.928 34.1297 22.5264C33.3765 22.0653 31.6735 22.0716 31.2395 22.5358C30.8543 22.9484 30.9816 23.9569 31.521 24.702C31.6122 24.8274 31.7223 24.942 31.8355 25.047C31.9943 25.196 32.1012 25.367 32.1122 25.5866C32.1704 26.7003 32.2836 27.8139 32.2695 28.9275C32.2538 30.2075 31.381 31.1188 30.1184 31.4011C29.5208 31.5344 28.9249 31.4827 28.2188 31.5187H28.2204Z" fill="white"/>
<path id="Vector_3" d="M29.3682 25.593C29.0585 24.7554 29.1623 23.8849 29.0207 23.0504C28.7754 21.6042 27.9169 20.9361 26.4938 21.2309C25.8176 21.3705 25.7767 21.0851 25.8271 20.6035C25.8994 19.9071 25.7437 19.2609 25.4104 18.6586C25.1635 18.2131 24.8002 18.1472 24.481 18.555C24.1508 18.977 23.8332 19.4036 23.7907 20.0028C23.698 21.2952 23.4998 22.5799 23.396 23.8723C23.3347 24.6456 23.3017 25.4267 23.503 26.1969C23.6288 26.6784 23.8065 27.1019 24.3898 27.1254C25.011 27.1505 25.2688 26.7364 25.3758 26.2141C25.4733 25.7326 25.5346 25.2432 25.5896 24.7538C25.6604 24.128 25.956 23.6872 26.5614 23.4661C27.2344 23.2198 27.3681 23.3249 27.3068 24.0574C27.2266 25.0189 27.1904 25.9804 27.53 26.9074C27.832 27.7277 28.5616 27.952 29.0836 27.3387C29.5852 26.749 29.9029 26.0431 29.9972 25.2432C29.6686 25.2259 29.6749 25.5679 29.3682 25.5945V25.593Z" fill="white"/>
<path id="Vector_4" d="M37.99 29.5659C39.509 29.5596 40.5516 28.8224 40.8079 27.726C41.0878 26.5308 40.5862 25.5709 39.3581 24.9513C39.1945 24.8698 39.0263 24.7976 38.8706 24.7035C38.2212 24.3145 38.2165 24.0871 38.8455 23.6432C39.0153 23.5224 39.2056 23.4267 39.3597 23.2887C39.8676 22.837 39.8864 22.2707 39.3109 21.9241C38.5404 21.4598 37.5576 21.1696 36.7116 21.9209C35.8735 22.6644 35.6565 23.7969 36.1408 24.9121C36.5324 25.814 37.339 26.1638 38.1316 26.5637C38.347 26.672 38.7134 26.752 38.5939 27.0814C38.4901 27.3668 38.1347 27.3198 37.8941 27.268C37.1079 27.097 36.3295 26.8916 35.5511 26.6861C34.7618 26.479 34.0872 26.7708 33.8891 27.4186C33.6736 28.1244 34.0557 28.9432 34.8373 29.0248C35.9757 29.144 37.089 29.373 37.9916 29.5659H37.99Z" fill="white"/>
<path id="Vector_5" d="M33.4079 20.0875C34.1454 20.0843 34.6957 19.5291 34.6832 18.7997C34.6706 18.086 33.9708 17.3833 33.2727 17.3865C32.5934 17.3881 32.0147 17.9496 32.0053 18.6162C31.9943 19.4146 32.6405 20.0922 33.4079 20.0875Z" fill="white"/>
</g>
</g>
<defs>
<clipPath id="clip0_316_46">
<rect width="34.7876" height="22" fill="white" transform="translate(6.09424 12.168)"/>
</clipPath>
</defs>
</svg>
