<?xml version="1.0" standalone="no"?><!DOCTYPE svg PUBLIC "-//W3C//DTD SVG 1.1//EN" "http://www.w3.org/Graphics/SVG/1.1/DTD/svg11.dtd"><svg t="1657267981770" class="icon" viewBox="0 0 1024 1024" version="1.1" xmlns="http://www.w3.org/2000/svg" p-id="2680" xmlns:xlink="http://www.w3.org/1999/xlink" width="128" height="128"><defs><style type="text/css">@font-face { font-family: feedback-iconfont; src: url("//at.alicdn.com/t/font_1031158_u69w8yhxdu.woff2?t=1630033759944") format("woff2"), url("//at.alicdn.com/t/font_1031158_u69w8yhxdu.woff?t=1630033759944") format("woff"), url("//at.alicdn.com/t/font_1031158_u69w8yhxdu.ttf?t=1630033759944") format("truetype"); }
</style></defs><path d="M769.408 709.034667l182.613333 182.656-60.330666 60.373333-182.613334-182.656A382.421333 382.421333 0 0 1 469.333333 853.333333a383.914667 383.914667 0 0 1-344.106666-213.333333H384l-55.637333 92.714667A297.472 297.472 0 0 0 469.333333 768a297.685333 297.685333 0 0 0 208-84.266667l6.4-6.4A297.685333 297.685333 0 0 0 768 469.333333c0-29.653333-4.309333-58.282667-12.373333-85.333333h88.192c6.229333 27.434667 9.514667 56.021333 9.514666 85.333333a382.421333 382.421333 0 0 1-83.925333 239.701334zM813.44 298.666667H554.666667l55.637333-92.714667A297.472 297.472 0 0 0 469.333333 170.666667c-165.034667 0-298.666667 133.632-298.666666 298.666666 0 29.653333 4.309333 58.282667 12.373333 85.333334H94.848A385.621333 385.621333 0 0 1 85.333333 469.333333c0-212.181333 171.818667-384 384-384a383.914667 383.914667 0 0 1 344.106667 213.333334z" p-id="2681" fill="#ffffff"></path></svg>