<?xml version="1.0" standalone="no"?><!DOCTYPE svg PUBLIC "-//W3C//DTD SVG 1.1//EN" "http://www.w3.org/Graphics/SVG/1.1/DTD/svg11.dtd"><svg t="1654948771236" class="icon" viewBox="0 0 1024 1024" version="1.1" xmlns="http://www.w3.org/2000/svg" p-id="2367" xmlns:xlink="http://www.w3.org/1999/xlink" width="128" height="128"><defs><style type="text/css">@font-face { font-family: feedback-iconfont; src: url("//at.alicdn.com/t/font_1031158_u69w8yhxdu.woff2?t=1630033759944") format("woff2"), url("//at.alicdn.com/t/font_1031158_u69w8yhxdu.woff?t=1630033759944") format("woff"), url("//at.alicdn.com/t/font_1031158_u69w8yhxdu.ttf?t=1630033759944") format("truetype"); }
</style></defs><path d="M866.304 793.6h-60.416v-51.2h60.416c16.384 0 29.696-13.312 29.696-29.696V157.696a29.696 29.696 0 0 0-29.696-29.696H311.296a29.696 29.696 0 0 0-29.696 29.696v60.416h-51.2V157.696c0-44.544 36.352-80.896 80.896-80.896h554.496c44.544 0 80.896 36.352 80.896 80.896v554.496c0.512 45.056-35.84 81.408-80.384 81.408z" p-id="2368" data-spm-anchor-id="a313x.7781069.0.i4" class="selected" fill="#ffffff"></path><path d="M763.904 896h-55.296v-51.2h55.296c16.384 0 29.696-13.312 29.696-29.696V260.096a29.696 29.696 0 0 0-29.696-29.696H208.896a29.696 29.696 0 0 0-29.696 29.696v55.296h-51.2V260.096c0-44.544 36.352-80.896 80.896-80.896h554.496c44.544 0 80.896 36.352 80.896 80.896v554.496c0.512 45.056-35.84 81.408-80.384 81.408z" p-id="2369" data-spm-anchor-id="a313x.7781069.0.i3" class="selected" fill="#ffffff"></path><path d="M661.504 998.4H106.496c-44.544 0-80.896-36.352-80.896-80.896V362.496c0-44.544 36.352-80.896 80.896-80.896h554.496c44.544 0 80.896 36.352 80.896 80.896v554.496c0.512 45.056-35.84 81.408-80.384 81.408zM106.496 332.8a29.696 29.696 0 0 0-29.696 29.696v554.496c0 16.384 13.312 29.696 29.696 29.696h554.496c16.384 0 29.696-13.312 29.696-29.696V362.496a29.696 29.696 0 0 0-29.696-29.696H106.496z" p-id="2370" data-spm-anchor-id="a313x.7781069.0.i2" class="selected" fill="#ffffff"></path></svg>